TITLE ""
FILE "1Q_t_0901-0909.mp3" MP3
  TRACK 01 AUDIO
    TITLE "1Q_t_0901-0909_01"
    INDEX 01 00:00:00
  TRACK 02 AUDIO
    TITLE "1Q_t_0901-0909_02"
    INDEX 01 00:01:33
  TRACK 03 AUDIO
    TITLE "1Q_t_0901-0909_03"
    INDEX 01 00:02:09
  TRACK 04 AUDIO
    TITLE "1Q_t_0901-0909_04"
    INDEX 01 00:03:15
  TRACK 05 AUDIO
    TITLE "1Q_t_0901-0909_05"
    INDEX 01 00:03:60
  TRACK 06 AUDIO
    TITLE "1Q_t_0901-0909_06"
    INDEX 01 00:05:06
  TRACK 07 AUDIO
    TITLE "1Q_t_0901-0909_07"
    INDEX 01 00:05:13
  TRACK 08 AUDIO
    TITLE "1Q_t_0901-0909_08"
    INDEX 01 00:08:63
  TRACK 09 AUDIO
    TITLE "1Q_t_0901-0909_09"
    INDEX 01 00:08:69
  TRACK 10 AUDIO
    TITLE "1Q_t_0901-0909_10"
    INDEX 01 00:16:21
  TRACK 11 AUDIO
    TITLE "1Q_t_0901-0909_11"
    INDEX 01 00:16:66
  TRACK 12 AUDIO
    TITLE "1Q_t_0901-0909_12"
    INDEX 01 00:18:28
  TRACK 13 AUDIO
    TITLE "1Q_t_0901-0909_13"
    INDEX 01 00:18:36
  TRACK 14 AUDIO
    TITLE "1Q_t_0901-0909_14"
    INDEX 01 00:22:26
  TRACK 15 AUDIO
    TITLE "1Q_t_0901-0909_15"
    INDEX 01 00:22:31
  TRACK 16 AUDIO
    TITLE "1Q_t_0901-0909_16"
    INDEX 01 00:29:39
  TRACK 17 AUDIO
    TITLE "1Q_t_0901-0909_17"
    INDEX 01 00:30:09
  TRACK 18 AUDIO
    TITLE "1Q_t_0901-0909_18"
    INDEX 01 00:31:36
  TRACK 19 AUDIO
    TITLE "1Q_t_0901-0909_19"
    INDEX 01 00:31:46
  TRACK 20 AUDIO
    TITLE "1Q_t_0901-0909_20"
    INDEX 01 00:35:20
  TRACK 21 AUDIO
    TITLE "1Q_t_0901-0909_21"
    INDEX 01 00:35:26
  TRACK 22 AUDIO
    TITLE "1Q_t_0901-0909_22"
    INDEX 01 00:41:33
  TRACK 23 AUDIO
    TITLE "1Q_t_0901-0909_23"
    INDEX 01 00:42:03
  TRACK 24 AUDIO
    TITLE "1Q_t_0901-0909_24"
    INDEX 01 00:43:16
  TRACK 25 AUDIO
    TITLE "1Q_t_0901-0909_25"
    INDEX 01 00:43:26
  TRACK 26 AUDIO
    TITLE "1Q_t_0901-0909_26"
    INDEX 01 00:46:59
  TRACK 27 AUDIO
    TITLE "1Q_t_0901-0909_27"
    INDEX 01 00:46:65
  TRACK 28 AUDIO
    TITLE "1Q_t_0901-0909_28"
    INDEX 01 00:54:57
  TRACK 29 AUDIO
    TITLE "1Q_t_0901-0909_29"
    INDEX 01 00:55:27
  TRACK 30 AUDIO
    TITLE "1Q_t_0901-0909_30"
    INDEX 01 00:56:70
  TRACK 31 AUDIO
    TITLE "1Q_t_0901-0909_31"
    INDEX 01 00:57:00
  TRACK 32 AUDIO
    TITLE "1Q_t_0901-0909_32"
    INDEX 01 00:59:01
  TRACK 33 AUDIO
    TITLE "1Q_t_0901-0909_33"
    INDEX 01 00:59:09
  TRACK 34 AUDIO
    TITLE "1Q_t_0901-0909_34"
    INDEX 01 01:06:44
  TRACK 35 AUDIO
    TITLE "1Q_t_0901-0909_35"
    INDEX 01 01:07:15
  TRACK 36 AUDIO
    TITLE "1Q_t_0901-0909_36"
    INDEX 01 01:08:34
  TRACK 37 AUDIO
    TITLE "1Q_t_0901-0909_37"
    INDEX 01 01:08:41
  TRACK 38 AUDIO
    TITLE "1Q_t_0901-0909_38"
    INDEX 01 01:11:38
  TRACK 39 AUDIO
    TITLE "1Q_t_0901-0909_39"
    INDEX 01 01:11:44
  TRACK 40 AUDIO
    TITLE "1Q_t_0901-0909_40"
    INDEX 01 01:17:11
  TRACK 41 AUDIO
    TITLE "1Q_t_0901-0909_41"
    INDEX 01 01:17:58
  TRACK 42 AUDIO
    TITLE "1Q_t_0901-0909_42"
    INDEX 01 01:18:73
  TRACK 43 AUDIO
    TITLE "1Q_t_0901-0909_43"
    INDEX 01 01:19:06
  TRACK 44 AUDIO
    TITLE "1Q_t_0901-0909_44"
    INDEX 01 01:23:23
  TRACK 45 AUDIO
    TITLE "1Q_t_0901-0909_45"
    INDEX 01 01:23:31
  TRACK 46 AUDIO
    TITLE "1Q_t_0901-0909_46"
    INDEX 01 01:26:55
  TRACK 47 AUDIO
    TITLE "1Q_t_0901-0909_47"
    INDEX 01 01:27:27
  TRACK 48 AUDIO
    TITLE "1Q_t_0901-0909_48"
    INDEX 01 01:28:52
  TRACK 49 AUDIO
    TITLE "1Q_t_0901-0909_49"
    INDEX 01 01:28:62
  TRACK 50 AUDIO
    TITLE "1Q_t_0901-0909_50"
    INDEX 01 01:31:42
  TRACK 51 AUDIO
    TITLE "1Q_t_0901-0909_51"
    INDEX 01 01:31:50
  TRACK 52 AUDIO
    TITLE "1Q_t_0901-0909_52"
    INDEX 01 01:35:07
  TRACK 53 AUDIO
    TITLE "1Q_t_0901-0909_53"
    INDEX 01 01:35:54
  TRACK 54 AUDIO
    TITLE "1Q_t_0901-0909_54"
    INDEX 01 01:36:73
  TRACK 55 AUDIO
    TITLE "1Q_t_0901-0909_55"
    INDEX 01 01:37:06
  TRACK 56 AUDIO
    TITLE "1Q_t_0901-0909_56"
    INDEX 01 01:38:37
  TRACK 57 AUDIO
    TITLE "1Q_t_0901-0909_57"
    INDEX 01 01:38:43
  TRACK 58 AUDIO
    TITLE "1Q_t_0901-0909_58"
    INDEX 01 01:43:04
